# xmcd CD database file
#
# Track frame offsets:
#	150
#	18699
#	37243
#	62217
#	88718
#	112750
#	137289
#	159394
#	190772
#	215357
#	243005
#	260497
#	280898
#
# Disc length: 4049 seconds
#
# Revision: 1
# Processed by: cddbd v1.5.1PL0 Copyright (c) Steve Scherf et al.
# Submitted via: CDex 1.51
#
DISCID=af0fcf0d
DTITLE=Enrique Ibarguren Trio - Sometime Ago
DYEAR=2005
DGENRE=Jazz
TTITLE0=Sometime ago
TTITLE1=Amazonas
TTITLE2=It could happen to you
TTITLE3=Flowers
TTITLE4=Groovin' high
TTITLE5=But beautiful
TTITLE6=Cherokee
TTITLE7=Like someone in love
TTITLE8=Body and soul
TTITLE9=Hav you met miss Jones?
TTITLE10=Blue bossa
TTITLE11=Just friends
TTITLE12=Out of nowhere
EXTD=YEAR: 2005
EXTT0=
EXTT1=
EXTT2=
EXTT3=
EXTT4=
EXTT5=
EXTT6=
EXTT7=
EXTT8=
EXTT9=
EXTT10=
EXTT11=
EXTT12=
PLAYORDER=
